<svg viewBox="0 0 144 50" fill="none" xmlns="http://www.w3.org/2000/svg">
                <path fill-rule="evenodd" clip-rule="evenodd"
                    d="M71.7434 4.56406L72.5636 0.78125L73.0754 4.56406L74.2023 1.0875L74.1006 4.76875L75.9444 1.39531L75.2276 5.17812L77.5832 2.11094L76.4562 5.79219L79.0169 3.03125L77.4799 6.50781L80.3489 3.84844L78.3001 7.22344L81.4759 5.17812L79.0169 8.14375L82.7046 6.50781L79.8371 9.06406L83.4215 8.04219L80.3489 10.2906L84.1383 9.575L80.759 11.4156L84.5484 11.1094L80.8608 12.5406L84.7535 12.95L80.9625 13.7688L84.7535 14.4844L80.8608 14.8922L84.5484 16.325L80.759 16.2219L84.1383 17.8578L80.3489 17.2453L83.4215 19.4937L79.8371 18.4719L82.7046 21.0281L79.0169 19.2906L81.4759 22.1531L78.3001 20.2109L80.3489 23.4828L77.4799 21.0281L79.0169 24.5047L76.4562 21.7438L77.5832 25.3234L75.2276 22.1531L75.9444 25.9375L74.1006 22.6641L74.2023 26.4484L73.0754 22.9719L72.5636 26.7547L71.7434 22.9719L71.0265 26.7547L70.6164 22.9719L69.286 26.4484L69.3877 22.6641L67.6472 25.9375L68.2608 22.1531L66.0069 25.3234L67.1338 21.7438L64.4714 24.5047L66.0069 21.0281L63.1394 23.4828L65.29 20.2109L61.9107 22.1531L64.4714 19.2906L60.8855 21.0281L63.7545 18.4719L60.0669 19.4937L63.1394 17.2453L59.2467 17.8578L62.8326 16.2219L59.0416 16.325L62.6276 14.8922L58.7349 14.4844L62.5242 13.7688L58.7349 12.95L62.6276 12.5406L59.0416 11.1094L62.8326 11.4156L59.2467 9.575L63.1394 10.2906L60.0669 8.04219L63.7545 9.06406L60.8855 6.50781L64.4714 8.14375L61.9107 5.17812L65.29 7.22344L63.1394 3.84844L66.0069 6.50781L64.4714 3.03125L67.1338 5.79219L66.0069 2.11094L68.2608 5.17812L67.6472 1.39531L69.3877 4.76875L69.286 1.0875L70.6164 4.56406L71.0265 0.78125L71.7434 4.56406Z"
                    fill="#F89C1D"></path>
                <path
                    d="M57.4122 48.659H51.7336V47.373C51.1998 47.6559 50.4799 47.9996 49.2245 47.9699C46.1489 47.9059 43.607 45.3684 43.607 42.2371C43.607 39.3887 46.1489 36.9762 49.2245 36.9762C50.1026 36.9762 50.9494 37.0699 51.7336 37.3199V35.5652H42.2922V48.6574H36.7388V40.234C36.1409 39.8902 34.9513 39.6402 34.3863 39.8293C35.0452 40.548 35.5774 41.7699 35.5774 42.7715C35.5774 44.9949 33.8228 46.6246 31.8131 46.6246C29.8049 46.6246 28.2365 45.3699 27.8593 43.6184L27.7654 43.0543C27.4195 39.8902 29.8033 37.3215 32.8477 37.0715C34.1656 36.9777 35.3254 37.1355 36.7388 37.3855V35.5668H27.0752V48.659H21.3652V35.5668H18.1018L19.9221 38.448C18.4477 38.1043 16.8152 38.1043 15.2468 38.2918C13.0195 38.448 10.8861 39.0105 9.75759 40.7043C8.84663 42.1121 8.94211 43.9918 10.1332 44.8043C10.8861 45.3684 12.3308 45.7152 13.2089 45.2121C12.7065 44.4934 12.3308 43.7715 12.3308 43.0527C12.3308 41.2684 14.087 39.6387 16.0952 39.6387C18.1972 39.6387 19.955 41.2684 19.955 43.0527C19.955 44.1793 19.2647 45.2121 18.1972 45.7152C18.6997 46.5293 19.3586 47.123 20.1428 47.123L17.5085 49.0668C16.4426 48.848 15.0292 47.9699 14.4642 47.123C11.4527 48.8137 6.24524 48.4699 4.08055 45.4324C2.79394 43.773 2.85655 40.9543 4.01794 39.2949C5.99324 36.4434 10.1348 36.3824 13.0211 36.4434L12.4263 35.5668H2.85498V32.9684H10.1332L5.49081 27.9887L11.1694 25.359L13.1447 29.084L13.0195 25.609L18.479 25.1699C18.1018 27.3934 17.82 30.1168 19.2632 32.0605L17.9139 32.9684H21.4278C20.8628 32.3418 20.675 31.434 20.675 30.5559C20.675 26.8934 25.7572 24.5762 32.0009 24.5762C38.3682 24.5762 43.3878 26.8949 43.3878 30.5559C43.3878 31.4324 43.1687 32.3402 42.6679 32.9684H65.6625V35.5668H57.4122V37.3215C58.1353 37.0715 59.0118 36.9777 59.8899 36.9777C63.0266 36.9777 65.5075 39.3902 65.6014 42.2387C65.6938 45.498 63.0595 47.8465 59.9228 47.8465C59.0447 47.8465 58.1353 47.7527 57.4122 47.2496V48.659ZM36.36 32.9684C36.6746 32.6246 37.1442 31.7465 37.1442 30.8387C37.1442 28.5512 35.5759 27.1434 32.0932 27.1434C28.6106 27.1434 26.9171 28.5512 26.9171 30.8387C26.9171 31.8105 27.3569 32.5605 27.9204 32.9684H36.36ZM51.7336 39.8277H51.4519C50.1026 39.8277 49.0352 40.7965 49.0352 42.4262C49.0352 43.9918 50.1026 44.9934 51.4519 44.9934H51.7336V39.8277ZM57.4122 44.9949H57.7878C59.0118 44.9949 60.1106 43.9934 60.1106 42.4277C60.1106 40.798 59.0118 39.8293 57.7878 39.8293H57.4122V44.9949ZM141.145 35.5668H138.195C139.198 36.4434 139.671 37.6043 139.671 38.8559C139.671 41.3605 137.536 43.4918 135.058 43.6168C134.432 43.648 133.992 43.6168 133.648 43.6168C134.557 45.9965 137.883 46.184 139.452 45.3684L137.883 48.8465C133.648 50.0684 130.102 48.1559 129.254 44.8043C128.94 43.6152 128.628 42.7699 127.31 42.4246L128.628 39.6371C130.228 39.3871 130.636 40.5137 131.86 40.5137C133.114 40.5137 134.213 39.3871 134.213 38.1012C134.213 36.9746 133.114 35.7824 131.86 35.5637H118.716V37.3184C119.531 37.0684 120.345 36.9434 121.254 36.9434C124.455 36.9434 126.933 39.3855 126.933 42.234C126.933 45.3652 124.455 47.9027 121.254 47.9027C120.345 47.9027 119.529 47.6215 118.716 47.1199V48.6543H113.162V47.3684C112.722 47.6215 111.938 48.0262 110.59 48.0262C107.39 48.0262 105.006 45.3637 105.006 42.2324H103.437C101.994 43.8309 100.143 43.7059 99.0125 43.6121C99.9219 45.9918 103.217 46.1793 104.881 45.3637L103.218 48.8418C98.543 50.0637 95.5018 47.934 94.6832 44.7996C94.3388 43.5168 93.7738 42.7652 92.675 42.4199L94.0571 39.6324C95.5002 39.3824 96.1263 40.509 97.0357 40.509C98.4491 40.509 99.4524 39.3824 99.4524 38.0965C99.4524 36.9699 98.4491 35.7777 97.1938 35.559H92.2993V48.6512H86.8101V35.559H85.2731V48.6512H79.8136V41.8855H77.0212V44.7668C77.0212 46.1434 76.7066 46.8012 76.0477 47.1152C73.6341 48.3059 70.8386 46.1762 69.6178 44.173C68.2044 41.8855 68.2998 39.223 72.0016 38.848V35.2137C71.5618 34.684 70.5271 35.4965 69.9292 35.7777L68.519 34.0262C69.9292 32.6465 72 31.7387 73.7891 32.0527C75.827 32.1465 77.0823 33.5543 77.0212 35.559V39.3809H79.8136V35.559H78.5599V32.9684H141.147V35.5668H141.145ZM104.879 38.6371C104.879 39.1699 104.721 39.859 104.596 40.1387H105.538C106.228 38.1043 108.391 36.9465 110.744 36.9465C111.561 36.9465 112.312 37.0715 113.161 37.3215V35.5668H103.622C104.406 36.4449 104.879 37.3855 104.879 38.6371ZM113.161 39.8277H112.782C111.403 39.8277 110.398 40.7965 110.398 42.4262C110.398 43.9918 111.401 44.9934 112.782 44.9934H113.161V39.8277ZM118.714 44.9949H119.184C120.343 44.9949 121.567 43.9934 121.567 42.4277C121.567 40.798 120.343 39.8293 119.184 39.8293H118.714V44.9949Z"
                    fill="#dee0e6"></path>
            </svg>